<svg width="16" height="18" viewBox="0 0 16 18" fill="none" xmlns="http://www.w3.org/2000/svg">
<path d="M8 9.83301C9.38071 9.83301 10.5 8.71372 10.5 7.33301C10.5 5.9523 9.38071 4.83301 8 4.83301C6.61929 4.83301 5.5 5.9523 5.5 7.33301C5.5 8.71372 6.61929 9.83301 8 9.83301Z" stroke="#3F4E65" stroke-width="1.3" stroke-linecap="round" stroke-linejoin="round"/>
<path d="M7.99992 0.666504C6.23181 0.666504 4.53612 1.36888 3.28587 2.61913C2.03563 3.86937 1.33325 5.56506 1.33325 7.33317C1.33325 8.90984 1.66825 9.9415 2.58325 11.0832L7.99992 17.3332L13.4166 11.0832C14.3316 9.9415 14.6666 8.90984 14.6666 7.33317C14.6666 5.56506 13.9642 3.86937 12.714 2.61913C11.4637 1.36888 9.76803 0.666504 7.99992 0.666504V0.666504Z" stroke="#3F4E65" stroke-width="1.3" stroke-linecap="round" stroke-linejoin="round"/>
</svg>
